<svg width="100" height="100" viewBox="0 0 100 100" fill="none" xmlns="http://www.w3.org/2000/svg">
    <path d="M49.9866 33.3256C40.8055 33.3256 33.3131 40.818 33.3131 49.9991C33.3131 59.1801 40.8055 66.6725 49.9866 66.6725C59.1676 66.6725 66.66 59.1801 66.66 49.9991C66.66 40.818 59.1676 33.3256 49.9866 33.3256ZM99.9944 49.9991C99.9944 43.0945 100.057 36.2525 99.6692 29.3605C99.2815 21.3552 97.4553 14.2506 91.6014 8.39673C85.7351 2.53038 78.6429 0.716689 70.6376 0.328934C63.7331 -0.0588207 56.8911 0.00372049 49.9991 0.00372049C43.0945 0.00372049 36.2525 -0.0588208 29.3605 0.328934C21.3552 0.716689 14.2506 2.54289 8.39674 8.39673C2.53038 14.2631 0.716689 21.3552 0.328934 29.3605C-0.0588206 36.265 0.00372041 43.107 0.00372052 49.9991C0.00372063 56.8911 -0.0588206 63.7456 0.328934 70.6376C0.716689 78.6429 2.54289 85.7476 8.39674 91.6014C14.2631 97.4678 21.3552 99.2814 29.3605 99.6692C36.265 100.057 43.107 99.9944 49.9991 99.9944C56.9036 99.9944 63.7456 100.057 70.6376 99.6692C78.6429 99.2814 85.7476 97.4552 91.6014 91.6014C97.4678 85.735 99.2815 78.6429 99.6692 70.6376C100.069 63.7456 99.9944 56.9036 99.9944 49.9991ZM49.9866 75.6534C35.7897 75.6534 24.3322 64.1959 24.3322 49.9991C24.3322 35.8022 35.7897 24.3447 49.9866 24.3447C64.1834 24.3447 75.6409 35.8022 75.6409 49.9991C75.6409 64.1959 64.1834 75.6534 49.9866 75.6534ZM76.6916 29.2855C73.3769 29.2855 70.7002 26.6087 70.7002 23.294C70.7002 19.9793 73.3769 17.3026 76.6916 17.3026C80.0063 17.3026 82.683 19.9793 82.683 23.294C82.684 24.0811 82.5297 24.8607 82.229 25.588C81.9282 26.3154 81.487 26.9763 80.9304 27.5328C80.3738 28.0894 79.713 28.5307 78.9856 28.8314C78.2582 29.1321 77.4787 29.2864 76.6916 29.2855Z" fill="#EFE7DC"/>
</svg>