<svg width="138" height="101" viewBox="0 0 138 101" fill="none" xmlns="http://www.w3.org/2000/svg">
    <path d="M122.325 0H15.5257C6.95093 0 0 6.95092 0 15.5256V85.4743C0 94.0491 6.95093 101 15.5257 101H122.328C130.902 101 137.853 94.0491 137.853 85.4743V15.5256C137.851 6.95365 130.9 0 122.325 0ZM118.985 84.5328C118.179 85.3679 117.107 85.7882 116.034 85.7882C115.014 85.7882 113.99 85.4061 113.196 84.6447L87.4911 59.9057L83.7878 63.9693C79.9835 68.1393 74.569 70.53 68.9253 70.53C63.2816 70.53 57.8644 68.1393 54.0628 63.9693L50.414 59.9658L25.7924 84.5901C24.9955 85.3897 23.9448 85.7882 22.8969 85.7882C21.8489 85.7882 20.8009 85.3897 20.0013 84.5901C18.4021 82.9909 18.4021 80.401 20.0013 78.8018L44.8904 53.91L18.7923 25.2684C17.2695 23.5982 17.3896 21.0083 19.0598 19.4855C20.7327 17.9627 23.3226 18.0828 24.8427 19.753L60.1131 58.4511C62.4001 60.9619 65.5303 62.3428 68.9253 62.3428C72.3202 62.3428 75.4532 60.9619 77.7374 58.4511L84.3472 51.2L113.008 19.7557C114.533 18.0855 117.121 17.9682 118.791 19.4883C120.461 21.0111 120.581 23.5982 119.058 25.2711L93.0066 53.8554L118.87 78.7472C120.499 80.3137 120.551 82.9036 118.985 84.5328Z" fill="#EFE7DC"/>
</svg>