<svg width="11" height="11" viewBox="0 0 11 11" fill="none" xmlns="http://www.w3.org/2000/svg">
    <path d="M7.63781 5.40657C7.63846 4.926 7.61066 4.44582 7.55452 3.96854C6.87736 4.00782 6.18772 4.02793 5.49591 4.02793C4.81666 4.02793 4.13971 4.00825 3.47447 3.97036C3.36332 4.92787 3.36374 5.89505 3.4757 6.85247C4.13948 6.89088 4.81554 6.91137 5.49591 6.91137C6.18913 6.91137 6.87801 6.89041 7.55377 6.85055C7.61041 6.37132 7.63847 5.88914 7.63781 5.40657Z" fill="#EFE7DC"/>
    <path d="M5.49593 3.44777C6.15932 3.44777 6.82015 3.42857 7.4696 3.39186C7.12375 1.4273 6.29834 0.205521 5.51464 0.205521C4.73069 0.205521 3.905 1.42808 3.55936 3.39372C4.19686 3.42903 4.84509 3.44777 5.49593 3.44777Z" fill="#EFE7DC"/>
    <path d="M8.13217 3.92931C8.24376 4.88616 8.24649 5.85259 8.14033 6.81006C9.1032 6.73622 10.0321 6.6229 10.8976 6.47107C11.0832 5.52286 11.0156 4.54249 10.7015 3.62875C9.88873 3.76137 9.02462 3.8623 8.13217 3.92931Z" fill="#EFE7DC"/>
    <path d="M8.04825 3.35359C8.89093 3.29136 9.7068 3.19784 10.4781 3.07618C10.1055 2.28499 9.54988 1.59391 8.85713 1.06015C8.16439 0.5264 7.35448 0.165325 6.49445 0.00681686C7.21584 0.590652 7.78089 1.80435 8.04825 3.35359Z" fill="#EFE7DC"/>
    <path d="M5.49592 7.49153C4.84544 7.49153 4.19904 7.47233 3.56253 7.43771C3.91007 9.39266 4.73309 10.6076 5.51462 10.6076C6.29641 10.6076 7.1197 9.39185 7.46704 7.43578C6.81844 7.47177 6.15925 7.49153 5.49592 7.49153Z" fill="#EFE7DC"/>
    <path d="M8.05907 7.39745C7.79262 8.99804 7.20973 10.2479 6.46414 10.8295C7.45036 10.6534 8.36985 10.2115 9.12357 9.55158C9.87728 8.89161 10.4367 8.03851 10.7415 7.08418C9.8929 7.22373 8.99183 7.32944 8.05907 7.39745Z" fill="#EFE7DC"/>
    <path d="M2.98052 3.35616C3.24879 1.79936 3.81768 0.581329 4.54371 -1.14441e-05C3.67591 0.153572 2.85764 0.513229 2.1577 1.04873C1.45776 1.58423 0.896596 2.27992 0.521362 3.07734C1.3015 3.20018 2.12743 3.29414 2.98052 3.35616Z" fill="#EFE7DC"/>
    <path d="M2.97058 7.40016C2.02749 7.33245 1.11643 7.22628 0.258911 7.08548C0.565827 8.04579 1.13051 8.9034 1.89139 9.5648C2.65227 10.2262 3.58014 10.666 4.57382 10.8363C3.82447 10.258 3.23826 9.00572 2.97058 7.40016Z" fill="#EFE7DC"/>
    <path d="M2.88918 6.81276C2.78283 5.85526 2.78536 4.8888 2.89672 3.93188C1.99384 3.8651 1.11956 3.7638 0.297977 3.62996C-0.0158152 4.54383 -0.0832273 5.52426 0.102525 6.47248C0.976904 6.62552 1.91598 6.73923 2.88918 6.81276Z" fill="#EFE7DC"/>
</svg>
